{
	"asset":{
		"generator":"Khronos glTF Blender I/O v4.3.47",
		"version":"2.0"
	},
	"scene":0,
	"scenes":[
		{
			"name":"Scene",
			"nodes":[
				0
			]
		}
	],
	"nodes":[
		{
			"mesh":0,
			"name":"Torus",
			"rotation":[
				-0.7071068286895752,
				0,
				0,
				0.7071068286895752
			],
			"scale":[
				0.8211084604263306,
				0.8211084604263306,
				0.8211084604263306
			],
			"translation":[
				2.8204503059387207,
				2.3343214988708496,
				0
			]
		}
	],
	"materials":[
		{
			"doubleSided":true,
			"name":"porcelain",
			"pbrMetallicRoughness":{
				"baseColorFactor":[
					0.800000011920929,
					0.800000011920929,
					0.800000011920929,
					1
				],
				"metallicFactor":0,
				"roughnessFactor":0.20000000298023224
			}
		}
	],
	"meshes":[
		{
			"name":"Torus",
			"primitives":[
				{
					"attributes":{
						"POSITION":0,
						"NORMAL":1,
						"TEXCOORD_0":2
					},
					"indices":3,
					"material":0
				}
			]
		}
	],
	"accessors":[
		{
			"bufferView":0,
			"componentType":5126,
			"count":131981,
			"max":[
				1.2353031635284424,
				2.860492467880249,
				2.624070167541504
			],
			"min":[
				-6.295422554016113,
				-2.860492467880249,
				-2.4901278018951416
			],
			"type":"VEC3"
		},
		{
			"bufferView":1,
			"componentType":5126,
			"count":131981,
			"type":"VEC3"
		},
		{
			"bufferView":2,
			"componentType":5126,
			"count":131981,
			"type":"VEC2"
		},
		{
			"bufferView":3,
			"componentType":5125,
			"count":752064,
			"type":"SCALAR"
		}
	],
	"bufferViews":[
		{
			"buffer":0,
			"byteLength":1583772,
			"byteOffset":0,
			"target":34962
		},
		{
			"buffer":0,
			"byteLength":1583772,
			"byteOffset":1583772,
			"target":34962
		},
		{
			"buffer":0,
			"byteLength":1055848,
			"byteOffset":3167544,
			"target":34962
		},
		{
			"buffer":0,
			"byteLength":3008256,
			"byteOffset":4223392,
			"target":34963
		}
	],
	"buffers":[
		{
			"byteLength":7231648,
			"uri":"small%20cup%20of%20coffee.bin"
		}
	]
}
